<?xml version="1.0" encoding="utf-8"?>
<!-- Generator: Adobe Illustrator 19.2.0, SVG Export Plug-In . SVG Version: 6.00 Build 0)  -->
<svg version="1.1" id="Camada_1" xmlns="http://www.w3.org/2000/svg" xmlns:xlink="http://www.w3.org/1999/xlink" x="0px" y="0px"
	 viewBox="0 0 203.2 203.2" style="enable-background:new 0 0 203.2 203.2;" xml:space="preserve">
<style type="text/css">
	.st0{fill:#DAACD1;}
	.st1{fill:#FFFBDC;}
	.st2{fill:#B2B2B2;}
	.st3{fill:#B27AB3;}
	.st4{fill:#FFE596;}
	.st5{fill:#878787;}
	.st6{fill:#8B4A97;}
	.st7{fill:#FBBE5E;}
	.st8{fill:#575756;}
	.st9{fill:#662483;}
	.st10{fill:#F39200;}
	.st11{fill:#3C3C3B;stroke:#000000;stroke-miterlimit:10;}
	.st12{fill:#3C3C3B;}
	.st13{fill:#FFFFFF;}
	.st14{fill:#FFED00;}
	.st15{fill:#605C5D;}
	.st16{stroke:#000000;stroke-miterlimit:10;}
	.st17{fill:#F9B233;}
</style>
<g>
	<rect x="65.6" y="26" class="st13" width="137.6" height="157.4"/>
	<g>
		<path class="st17" d="M203.2,97.7c-0.2-0.2-0.4-0.3-0.7-0.4l0,0l-78.7-39.4c0,0,0,0,0,0c-0.4-0.1-0.7-0.2-1.1-0.2
			c-1.6,0-2.8,1.2-2.8,2.7c0,0,0,0,0,0V143l0,0c0.1,1.5,1.3,2.6,2.8,2.6c0.5,0,0.9-0.1,1.3-0.3l0,0.1l78.7-43l0-0.1
			c0.2-0.1,0.4-0.2,0.6-0.4V97.7z"/>
		<path class="st9" d="M133.5,162.8c-1.5,0.8-3,1.4-4.6,1.8c-2,0.6-4.1,0.9-6.2,0.9c-10.9,0-20.2-7.8-22.2-18.2
			c-0.3-1.4-0.5-2.8-0.5-4.2V60.3c0-0.7,0-1.5,0.1-2.2c1.1-11.5,10.8-20.4,22.6-20.4c2.2,0,4.3,0.3,6.4,0.9c1.2,0.3,2.5,0.8,3.7,1.4
			l70.5,35.3V19.9c0-10.9-8.9-19.9-19.9-19.9H19.9C8.9,0,0,8.9,0,19.9v163.5c0,10.9,8.9,19.9,19.9,19.9h163.5
			c10.9,0,19.9-8.9,19.9-19.9v-58.7L133.5,162.8z"/>
	</g>
</g>
</svg>
