<?xml version="1.0" encoding="utf-8"?>
<!-- Generator: Adobe Illustrator 19.2.0, SVG Export Plug-In . SVG Version: 6.00 Build 0)  -->
<svg version="1.1" id="Camada_1" xmlns="http://www.w3.org/2000/svg" xmlns:xlink="http://www.w3.org/1999/xlink" x="0px" y="0px"
	 viewBox="0 0 481.8 79.5" style="enable-background:new 0 0 481.8 79.5;" xml:space="preserve">
<style type="text/css">
	.st0{fill:#DAACD1;}
	.st1{fill:#FFFBDC;}
	.st2{fill:#B2B2B2;}
	.st3{fill:#B27AB3;}
	.st4{fill:#FFE596;}
	.st5{fill:#878787;}
	.st6{fill:#8B4A97;}
	.st7{fill:#FBBE5E;}
	.st8{fill:#575756;}
	.st9{fill:#662483;}
	.st10{fill:#F39200;}
	.st11{fill:#3C3C3B;stroke:#000000;stroke-miterlimit:10;}
	.st12{fill:#3C3C3B;}
	.st13{fill:#FFFFFF;}
	.st14{fill:#FFED00;}
	.st15{fill:#605C5D;}
	.st16{stroke:#000000;stroke-miterlimit:10;}
	.st17{fill:#F9B233;}
</style>
<g>
	<path class="st9" d="M30.1,60.5C18.8,60.5,10,57.2,0,49.3l10.7-11c5.2,5.1,12.4,8,19.2,8c7.7,0,10.4-1.9,10.4-3.8
		c0-1.7-0.9-2.9-6.8-4.2C32.3,38,24.3,36,23,35.7C13,33.3,1.8,29.3,1.8,18c0-10.7,10.3-18,27.2-18c11.2,0,20.6,3.7,27.3,10.3
		L46,20.6C41.8,16.6,35.5,14,29.2,14c-7.6,0-9.5,2-9.5,3.8c0,2,3.1,2.9,9.5,4.4c1.2,0.4,8.1,2.1,9.4,2.5c12.6,3,19.6,7.6,19.6,16.8
		C58.2,52.1,48.7,60.5,30.1,60.5z"/>
	<rect x="69.4" y="0.9" class="st9" width="17.9" height="58.6"/>
	<path class="st9" d="M234.1,59.6h-17.9v-2.9H216c-4,2.2-10.1,3.8-16.2,3.8c-11,0-26.7-3.9-26.7-19.5c0-17.3,24-19.3,38.4-19.3h5.8
		l-1.6-1.6c0-3.6-3.6-6-9.9-6c-6.1,0-12.1,1.7-17.4,4.7L177.8,8.4c7.3-5.1,17.5-8.3,28.5-8.3c18.5,0,27.8,8.9,27.8,24.1V59.6z
		 M217.8,35.1h-2.9c-2.5,0-4.4,0-7.5,0.1c-3,0.2-6.1,0.4-8.9,0.9c-5.9,1.2-7.5,3.1-7.5,5.3c0,2.4,3.3,4.9,10.2,4.9
		c4.3,0,15.1-0.4,15.1-5.6v-4L217.8,35.1z"/>
	<path class="st9" d="M144.1,0.8v3.3H144c-2.6-2.2-9.4-4.1-14.1-4.1c-11.2,0-19.6,3.8-24.8,9.8l15.7,8.1c2.3-1.8,5.6-2.9,9.9-2.9
		c9.8,0,14.2,5.4,14.2,13.5c0,7.9-3.6,13.2-14.2,13.2c-3.6,0-6.6-0.7-8.8-2.1l-15.7,8.9c5.3,5.2,13.2,8.3,23.7,8.3
		c5.1,0,10.8-1.7,14-3.7h0.2V54c0,6.4-4.9,10.5-13.2,10.5c-6.3,0-12.6-1.6-17.8-4.7l-11.6,11.5c8.5,5.4,17.5,8.1,29.4,8.1
		c20.3,0,31.2-9.9,31.2-26.7v-52H144.1z"/>
	<path class="st10" d="M116.2,29.1c0-0.2-0.1-0.4-0.3-0.5l0,0l-15.5-7.8c0,0,0,0,0,0c-0.1,0-0.1,0-0.2,0c-0.3,0-0.6,0.2-0.6,0.5
		c0,0,0,0,0,0v16.3l0,0c0,0.3,0.3,0.5,0.6,0.5c0.1,0,0.2,0,0.2-0.1l0,0l15.5-8.5l0,0C116.1,29.5,116.2,29.3,116.2,29.1z"/>
	<g>
		<path class="st10" d="M302.4,60.3h-13.3v-3.7h-0.2c-4.9,3.4-10.9,4.7-16.8,4.7c-12.1,0-26.4-4.4-26.4-19
			c0-18.6,24.7-20.1,40.1-20.1c0.9,0,3.6,0,4.7,0.1l-1.5-1.3c-0.7-6.4-6-8.9-13.8-8.9c-5.6,0-11.8,1-17.2,5.1l-8.6-8.7
			c8.8-6.4,16.9-8.1,25.9-8.1c13,0,27.2,5,27.2,22.1V60.3z M290.4,33.7c-0.9-0.1-3.3-0.1-4-0.1c-2.6,0-5.7,0-8.9,0.1
			c-3.1,0.2-6.5,0.5-9.4,1.1c-6,1.3-9.2,3.6-9.2,7.4c0,6,7.9,7.3,13.2,7.3c5.2,0,17-0.7,17-7.4V35L290.4,33.7z"/>
		<path class="st10" d="M369.1,60.3h-13.3v-5.4h-0.2c-4,4-10.5,6.3-17.1,6.3c-17.6,0-25.2-9.3-25.2-23.7V1.1h13.3v35.8
			c0,7.3,2.1,12.5,13.8,12.5c9,0,15.4-4.7,15.4-13.6V1.1h13.3V60.3z"/>
		<path class="st10" d="M451.5,61.1c-20.2,0-30.2-13.2-30.2-30.4c0-17.2,9.9-30.4,30.2-30.4c20.2,0,30.3,13.1,30.3,30.4
			C481.8,47.8,471.7,61.1,451.5,61.1z M451.5,11.9c-11.8,0-16.9,7.8-16.9,18.7c0,10.9,5.2,18.7,17,18.7s16.9-7.8,16.9-18.7
			C468.5,19.8,463.3,11.9,451.5,11.9z"/>
		<path class="st10" d="M412,44.5c-3.3,3.5-6,4.9-9.3,4.9c-4,0-6.7-3.1-6.7-8.6V13.6l-0.8-1.3h18.5V1.2h-10.1h-8.3h-11.8h-8.2v11.1
			h8.2l-0.8,1.3v27.3c0,13.1,6.6,20.2,19.4,20.2c6.5,0,12.6-2.5,18.1-8.3L412,44.5z"/>
	</g>
</g>
</svg>
